<mxfile host="app.diagrams.net" modified="2024-04-10T00:19:16.058Z" agent="Mozilla/5.0 (Macintosh; Intel Mac OS X 10.15; rv:123.0) Gecko/20100101 Firefox/123.0" version="24.2.3" etag="Tes9Mbhhz9_mL8KecF3e" type="github">
  <diagram name="Page-1" id="En4VJBkR6R0vV7Nclc0t">
    <mxGraphModel>
      <root>
        <mxCell id="0" />
        <mxCell id="1" parent="0" />
      </root>
    </mxGraphModel>
  </diagram>
</mxfile>
